<?xml version='1.0' encoding='utf-8'?>
<svg xmlns="http://www.w3.org/2000/svg" viewBox="0 0 118 55"> <path class="fil0" d="m90.766 10.022s-0.42405 0.47746-0.42405 0.84891c0 0.37064 0.69597 1.1071 0.69597 1.1071 1.5311 1.544 4.2138 1.6145 4.2138 1.6145l4.2-6.0338s0.17155-0.029142 0-0.45804c-0.1651-0.41353-4.234 1.0925-5.6769 1.553-1.6298 0.51954-3.0088 1.3684-3.0088 1.3684zm-51.71 38.027s0.1591 0.47746 0.53039 0.74289c0.4883 0.34879 1.1358 0.36416 1.1358 0.36416l15.117-19.602 11.432 19.662s0.68949 0 1.1135-0.42486c0.4378-0.437 0.58996-0.56648 0.58996-0.56648l-11.756-19.867s15.58-20.544 18.406-23.828c0.15295-0.81491-0.76394-0.99295-1.3749-1.0188-0.26058 0.2703-0.35607 0.48394-0.53492 0.73886l-17.899 22.514s-11.936-22.464-12.166-22.794c-0.18233-0.023462-0.28025-1.4615-1.6238-0.75422-0.47657 0.25086-0.70713 0.21202-0.70713 0.7785 0 0.56567 13.082 24.325 13.082 24.325l-15.345 19.73h-1.64e-4zm-15.67-35.908c1.5784-0.12705 3.2331-0.076067 4.5823-0.73803 0.2546-0.35607 0.86558-0.5851 0.73828-1.0941-2.4184-1.833-5.0914-3.1569-8.07-3.6659-0.62038 0.038033-0.56 0.43296-0.4582 0.81411 0.8655 1.6549 1.5784 3.5138 3.2076 4.684zm88.261 6.4563-5.8711 0.9185c1.1459-1.5675 1.8249-2.872 2.3339-4.3489l5.9302-0.912c-0.38198 0.78903-1.884 3.5785-2.393 4.3425zm-4.5982 8.9803c-2.1218 0.63608-3.6845 0.63688-5.7813 0.74208 0.66196-1.4251 1.1135-2.605 1.9034-3.9791 2.393-0.1044 3.3479-0.15781 5.982-0.76394-0.8651 1.4251-1.3401 2.5241-2.1041 4.001zm-3.076 6.258c-1.0609 0.58348-3.182 1.485-7.8044 2.414l1.9098-3.309c2.7126-0.094692 4.7382-0.63609 6.9021-1.12-0.2104 0.87156-0.6725 1.8305-1.0075 2.015zm-11.75-1.5319c1.0367-1.4906 1.5279-2.469 2.011-3.844 0 0 2.2076 0.28486 5.8145-0.033995 0.26464-0.022657-2.1486 4.005-2.1486 4.005l-5.6769-0.1271zm-3.029 4.2008c-2.342 0.30508-5.4803-0.28243-6.8738-1.6298 0.71295-0.96707 1.12-2.062 1.833-3.029 2.164 0.5851 3.564 0.71296 7.1538 0.73805-0.61097 1.349-1.222 2.6989-2.113 3.9208zm-7.7551-7.4783 2.4132-4.1644 2.6544 2.0442c-0.94199 1.833-1.4364 2.4698-2.4553 4.3028-2.3533-0.8732-2.6123-2.1826-2.6123-2.1826zm5.5094-9.6698 1.8888-3.7274c0.71296 0.91688 1.816 1.7528 2.885 2.0838-0.55109 1.2738-1.8006 3.9192-2.0158 3.8181-3.3455-1.5643-2.758-2.1745-2.758-2.1745zm8.9504 4.3862c-0.91689 1.7569-1.044 2.393-2.062 4.073-2.393 0.12787-4.9187-0.53976-6.4109-1.4049l2.3727-4.0681c1.5174 0.89099 3.0452 1.4 6.1002 1.4zm-2.0717-8.7497 5.214 0.2274-1.2204 3.7655-5.2326-1.273 1.239-2.7199zm10.835 4.9486-2.1639 3.7169-5.791-0.4831s1.2115-2.6074 1.6444-3.4474c2.3865 0.21203 3.8715 0.26544 6.3106 0.21365zm10.651-7.1635c-3.5891 0.89099-7.5212 1.2576-11.277 1.4769-4.124-0.17884-10.46 0.751-12.729-1.2988-1.0172-0.9185-1.3879-1.82-1.3879-1.82-1.1079 1.4615-1.6201 3.0995-2.66 4.671l-8.044 14.842-0.8408 1.0189c-0.12707 0.68705 0.22901 1.1451 0.38197 1.731 3.3608 5.142 10.107 4.7859 15.758 4.124 3.5389-0.56001 7.0519-1.2479 10.082-3.1059 3.8691-7.1279 11.116-21.336 11.176-21.537 0.059074-0.20151-0.45804-0.10197-0.45804-0.10197h-8.09e-4zm-41.641 5.5005c-1.12 1.324-1.8653 3.0274-2.9093 4.4024-2.2651-0.30589-4.811-0.20393-7.1279-0.10196l3.4256-4.3716c3.7477-0.49445 6.6116 0.071213 6.6116 0.071213zm0.1772-9.0515 6.0023 0.0631c-0.86591 1.3749-1.909 2.6989-2.673 3.844l-6.1358-0.0761 2.8065-3.831zm9.6682-4.4169c2.571-0.56 5.3969-0.25492 7.9679 0.076066-1.171 1.5279-2.342 3.0299-3.2079 4.684-2.4067-0.55516-4.0633-0.90799-7.2299-0.91608l2.4698-3.844zm-1.9349 13.925-6.7435-0.9517c0.99295-1.4 1.8613-2.9246 2.8292-4.1717l7.2242 0.9994c-1.2989 1.273-2.2392 2.6066-3.3099 4.124zm-5.4989 8.3499-7.3966-0.4265s2.1777-2.5516 2.9166-3.5194l6.5234 0.9735c-0.35284 0.63689-2.0434 2.9724-2.0434 2.9724zm-18.049 0.6369s-0.80358 0.77526 0.17804 0.81411c6.746-1.2212 14.129-0.89099 21.079 0.10197 1.0439-1.044 1.9713-3.152 2.7604-4.349 0 0-1.6258-0.070395-2.6584-0.4111 0.96707-1.3749 1.8807-2.7175 2.9417-4.2559 0.35364 0.10601 1.273 0.12382 1.6436 0.21203 0.89098-1.298 2.3104-3.5575 3.0234-4.9324-0.42406-0.15861-0.45967 0.05341-0.83678-0.18856 1.0431-1.629 2.5872-3.4175 3.3851-4.7859 2.8769-2.0369 9.2789-3.0339 9.3688-3.564 0-0.68706-0.62069-0.7955-1.12-1.0949-6.0589-2.7749-15.097-2.5459-21.614-0.91608l-9.1648 11.99-8.986 11.38zm-42.896 1.731c0.56 0.99295 0.78919 2.3622 1.1965 3.4062-1.6293 0-3.7184 0.003239-5.2458-0.4807l-1.4143-3.7752c1.6548 0.5341 3.5798 0.84972 5.4637 0.84972zm-8.1465-7.5099c-0.58557-1.3239-0.94189-2.724-1.5529-4.022l5.5752 0.9161c0.68729 1.273 1.0437 2.724 1.6547 4.022-1.9093 0.53492-4.3532 0.33098-5.677-0.91608zm9.2411-8.7068 2.2148 5.3209c-2.2912 0.43296-4.3022-0.40706-6.5171-0.38197-0.43279-1.8581-1.2984-3.564-1.8329-5.3969 1.8074 0.25492 4.124 0.22902 6.1352 0.45804zm8.9865 5.7789c1.2474 1.1969 1.1456 3.2589 2.0112 4.7608-1.7821 0.78903-4.2514 0.48312-6.0334-0.10196l-1.9348-4.7609 5.957 0.102zm3.0295-5.6769 1.0947 2.9279c-0.4328 1.273-1.9094 1.629-3.1058 1.833-0.63648-1.3239-1.1201-2.673-1.5529-4.0479 1.3492 0.15296 2.4948-0.20393 3.564-0.71295zm3.0294 8.3248c0.1273 2.011 3.1313 4.5059-0.1782 5.9569l-1.2983 0.6361-1.6548-4.48c0.30549-0.38197 0.94197-0.35688 1.3748-0.63688l1.7565-1.4761zm-1.768-12.578-1.6179-3.7412c2.2912 0.076869 4.3786-0.50903 6.6698-0.17804 0.66198 1.069 1.4652 2.4852 1.9488 3.7072l-7.0008 0.212zm8.7179 4.9656c0.89099 1.349 1.2219 2.8769 1.8329 4.3279-2.0875 0.15214-4.5059 0-6.5934 0.45804l-1.833-4.3279c2.2912-0.56 4.0222-0.43295 6.5935-0.45804zm5.0405-4.2 2.2148 4.022c-2.113-0.20393-4.175-0.73803-6.3389-0.53492l-1.5529-3.7679c1.7566-0.331 3.9713-0.22902 5.677 0.28081zm7.6117 14.027c-2.3676-0.33099-4.7095-0.86591-7.5099-0.66196l-1.6547-3.9208c2.5457-0.17804 4.8878 0.20393 7.1535 0.71295 0.71279 1.273 1.4001 2.4949 2.0111 3.8699zm-13.698 4.124-1.144-3.7679 6.0588-0.102c0.68738 1.12 1.5784 2.164 1.7312 3.4879l-6.6459 0.382zm-2.7988 2.469c0.56016 0.81492 0.17819 1.629-0.28 2.3679-0.56009 0.63607-1.171 1.1961-1.9093 1.4761l-0.6364-1.3741c1.1455-0.50984 2.062-1.4259 2.8257-2.4699zm-9.241 2.6479c-0.5346-0.99296-0.8655-2.0879-1.2983-3.1059 1.6547-0.050974 3.4367-0.22901 4.7605-0.56 0.40997-0.072027 0.30549-0.025902 0.4582 0.38197 0.43279 0.91607 0.63648 1.9341 0.91648 2.9271-1.5529 0.25491-3.1822 0.66198-4.8369 0.35689zm-9.4447-4.4453-1.7566-4.684c2.0366 0.15295 4.5824 0.025896 6.6953 0.45804 1.0184 1.0189 1.3493 3.0048 2.0112 4.4808v0.20393c-2.3421 0.20312-4.6077-0.35688-6.9499-0.45885zm2.5712 7.5762-1.0183-2.953c2.0111 0.2549 4.5823 0.66196 6.7716 0.38197 0.89099 0.58508 0.91648 1.833 1.3747 2.749-2.5203 0.73885-4.8623 0.15296-7.128-0.17804zm3.9204 0.993c0.7637 0.40706 1.171-0.10196 1.9347 0.10198 1.8839-0.22903 3.7676-0.22903 5.397-0.9169 2.6221-0.50902 6.0333-2.5961 6.6189-5.6l-4.0477-10.998v-0.53491l0.28 0.3569c0.2134 0.11168 0.49632 0.041269 0.73829-0.17884 0.7128 1.3749 1.171 2.8518 1.7311 4.3028l-0.8146 0.28c0.66189 1.6549 1.1965 3.3859 1.9093 5.0409 4.8828-0.37468 7.8533-0.70568 14.505-0.40544 1.8389 0.083351 3.2882 0.19423 3.253-0.59318-0.037468-0.83433-13.148-24.104-13.148-24.104l-3.1871-0.1772c-5.3222-0.65469-10.488-0.76717-14.966 1.451-0.30541 0.28001-0.8146 0.45804-0.91648 0.81492 3.1007 0.91608 7.3063 3.462 8.0446 4.124 0.4582 1.3749 1.0492 2.6268 1.3746 4.124l-0.7127 0.102-1.0184-3.131-0.1018-0.0769c-1.1965 1.12-2.8003 1.2479-4.4805 1.273-12.433-0.90232-23.04-2.0685-23.268-1.909-0.22756 0.15943 0.050658 0.44104 0.050658 0.44104 0.8655 1.273 1.3749 2.6139 1.9604 4.039l5.677 14.842 1.7311 5.1428c3.5386 1.1451 7.4081 2.291 11.456 2.189h8e-5z" fill="#c8a406"/> </svg>